:version 1.10
:name ASF
:units
  mass 1
  length 1
  angle deg
:documentation
  ASF file generated by Kaydara
:root
  axis xyz
  order  tx ty tz rx ry rz
  position 0 0 0
  orientation 0 0 0
:bonedata
  begin
    id 1
    name RightUpLegDummy
    direction -0.718183 -0.695806 0.00816078
    length 4.904
    axis 0 0 0 xyz
  end
  begin
    id 2
    name RightUpLeg
    direction 3.53373e-006 -0.995788 0.0916898
    length 17.4976
    axis -3.49089 -0.000906625 0.000286804 xyz
    dof rx ry rz
  end
  begin
    id 3
    name RightLeg
    direction 0.00371092 -0.995096 -0.0988419
    length 16.5821
    axis 3.68512 0.0193738 -0.131023 xyz
    dof rx ry rz
  end
  begin
    id 4
    name RightFoot
    direction 0.00079151 -0.46099 0.887405
    length 3.77069
    axis 4.81691e-005 -0.120479 -0.188788 xyz
    dof rx ry rz
  end
  begin
    id 5
    name RightToes
    direction 0 0 0
    length 0
    axis 0 0 0 xyz
    dof rx ry rz
  end
  begin
    id 6
    name SpineDummy
    direction 8.3039e-015 1 4.57515e-016
    length 4.6813
    axis 0 0 0 xyz
  end
  begin
    id 7
    name Spine
    direction -3.15643e-008 0.999988 0.00495137
    length 10.1015
    axis -0.001389 0.000121418 2.40972e-006 xyz
    dof rx ry rz
  end
  begin
    id 8
    name Spine1
    direction 0 0 0
    length 0
    axis -0.001389 0.000121451 1.30017e-006 xyz
    dof rx ry rz
  end
  begin
    id 9
    name HEadDummy
    direction -1.99912e-008 0.999999 0.00127422
    length 3.43865
    axis -0.001389 0.000121451 1.30017e-006 xyz
  end
  begin
    id 10
    name HEad
    direction 0 0 0
    length 0
    axis 0 0 0 xyz
    dof rx ry rz
  end
  begin
    id 11
    name LeftShoulder1Dummy
    direction 0.998891 -0.0402509 -0.0244456
    length 3.5433
    axis -0.001389 0.000121451 1.30017e-006 xyz
  end
  begin
    id 12
    name LeftShoulder1
    direction 0.99951 -0.000327763 0.0313091
    length 4.05031
    axis -0.001389 0.000121451 1.30017e-006 xyz
    dof rx ry rz
  end
  begin
    id 13
    name LeftArm
    direction 0.998561 -0.00100056 -0.0536182
    length 10.3537
    axis -23.1894 0.134784 0.967509 xyz
    dof rx ry rz
  end
  begin
    id 14
    name LeftForeArm
    direction 0.998903 0.00866432 0.046012
    length 8.70632
    axis -9.91835 -0.06569 -0.177794 xyz
    dof rx ry rz
  end
  begin
    id 15
    name LeftHand
    direction 0 0 0
    length 0
    axis 0 0 0 xyz
    dof rx ry rz
  end
  begin
    id 16
    name RightShoulderDummy
    direction -0.998891 -0.0402509 -0.0244414
    length 3.5433
    axis -0.001389 0.000121451 1.30017e-006 xyz
  end
  begin
    id 17
    name RightShoulder
    direction -0.99951 -0.000327807 0.0313133
    length 4.05031
    axis 0.215806 0.000203643 -0.0068026 xyz
    dof rx ry rz
  end
  begin
    id 18
    name RightArm
    direction -0.998573 -0.000999564 -0.053403
    length 10.3947
    axis -23.2009 -0.134239 -0.964101 xyz
    dof rx ry rz
  end
  begin
    id 19
    name RightForeArm
    direction -0.998898 0.00868028 0.0461306
    length 8.68355
    axis -9.92322 0.0658061 0.178868 xyz
    dof rx ry rz
  end
  begin
    id 20
    name RightHand
    direction 0 0 0
    length 0
    axis 0 0 0 xyz
    dof rx ry rz
  end
  begin
    id 21
    name LeftUpLegDummy
    direction 0.718183 -0.695806 0.00816078
    length 4.904
    axis 0 0 0 xyz
  end
  begin
    id 22
    name LeftUpLeg
    direction -6.81752e-006 -0.995793 0.0916337
    length 17.4976
    axis -3.48766 0.00143442 -0.000524262 xyz
    dof rx ry rz
  end
  begin
    id 23
    name LeftLeg
    direction -0.00601358 -0.995091 -0.0987824
    length 16.5821
    axis 3.68178 -0.00654042 -0.000285133 xyz
    dof rx ry rz
  end
  begin
    id 24
    name LeftFoot
    direction -0.00417578 -0.460984 0.887399
    length 3.77069
    axis 1.87233e-006 4.66016e-005 -8.6538e-006 xyz
    dof rx ry rz
  end
  begin
    id 25
    name LeftToes
    direction 0 0 0
    length 0
    axis 0 0 0 xyz
    dof rx ry rz
  end
:hierarchy
  begin
    root RightUpLegDummy SpineDummy LeftUpLegDummy
    RightUpLegDummy RightUpLeg
    RightUpLeg RightLeg
    RightLeg RightFoot
    RightFoot RightToes
    SpineDummy Spine
    Spine Spine1
    Spine1 HEadDummy LeftShoulder1Dummy RightShoulderDummy
    HEadDummy HEad
    LeftShoulder1Dummy LeftShoulder1
    LeftShoulder1 LeftArm
    LeftArm LeftForeArm
    LeftForeArm LeftHand
    RightShoulderDummy RightShoulder
    RightShoulder RightArm
    RightArm RightForeArm
    RightForeArm RightHand
    LeftUpLegDummy LeftUpLeg
    LeftUpLeg LeftLeg
    LeftLeg LeftFoot
    LeftFoot LeftToes
  end

:SAMPLES-PER-SECOND 30
:FULLY-SPECIFIED
:DEGREES
224
root  14.3679 40.5994 9.65062 153.602 84.7763 155.734
RightUpLeg  1.87555 -12.8652 -13.8724
RightLeg  7.21582 -11.593 2.22187
RightFoot  -0.994322 -0.428496 4.63691
RightToes  0.000481921 0.542163 -0.142578
Spine  -1.81521 0.259935 -1.45103
Spine1  14.0655 -0.0432186 1.38805
HEad  11.895 -5.35084 1.32442
LeftShoulder1  9.26992 -13.5511 -47.4385
LeftArm  -11.5764 9.64465 -27.1172
LeftForeArm  174.581 -54.1222 -166.488
LeftHand  -0.25398 0.0180481 5.50724
RightShoulder  4.20052 7.38064 32.649
RightArm  -11.5428 0.890539 33.8621
RightForeArm  129.214 64.0581 155.627
RightHand  -2.42328 5.56818 -25.6422
LeftUpLeg  1.30048 6.79881 7.06632
LeftLeg  1.17574 11.201 -3.40624
LeftFoot  3.04994 0.649963 -5.28594
LeftToes  1.06245e-005 4.65869e-005 -8.65517e-006
225
root  14.4109 40.6003 9.64385 153.598 84.7614 155.725
RightUpLeg  1.9537 -12.7958 -13.8665
RightLeg  7.18552 -11.6616 2.17126
RightFoot  -1.03155 -0.432303 4.69164
RightToes  0.000481921 0.542163 -0.142578
Spine  -1.89193 0.156751 -1.72528
Spine1  14.2561 -0.268341 1.77905
HEad  11.6945 -4.68893 1.1941
LeftShoulder1  9.18135 -13.399 -47.4069
LeftArm  -11.7792 9.79966 -27.2996
LeftForeArm  174.625 -53.9842 -166.557
LeftHand  -0.25398 0.0180481 5.50724
RightShoulder  4.27077 7.39555 33.2393
RightArm  -10.2156 -3.04218 34.5466
RightForeArm  133.245 60.279 159.347
RightHand  -2.29647 5.2252 -25.1004
LeftUpLeg  1.37376 6.80614 7.06884
LeftLeg  1.16065 11.1735 -3.42246
LeftFoot  2.99636 0.64813 -5.2964
LeftToes  1.06245e-005 4.65869e-005 -8.65517e-006
226
root  14.4524 40.6005 9.63747 153.604 84.7164 155.743
RightUpLeg  2.03384 -12.7308 -13.868
RightLeg  7.19117 -11.7639 2.09385
RightFoot  -1.069 -0.434871 4.72742
RightToes  0.000481921 0.542163 -0.142578
Spine  -1.82656 -0.00782131 -1.93235
Spine1  14.2495 -0.510632 2.0136
HEad  11.6238 -3.76423 1.10515
LeftShoulder1  9.07801 -13.247 -47.2963
LeftArm  -11.9348 10.0736 -27.4185
LeftForeArm  174.847 -53.7938 -166.664
LeftHand  -0.25398 0.0180481 5.50724
RightShoulder  4.3128 7.41264 33.5613
RightArm  -8.79072 -7.00474 35.5098
RightForeArm  136.933 56.9874 161.951
RightHand  -2.23614 5.12754 -24.6815
LeftUpLeg  1.44037 6.83946 7.07842
LeftLeg  1.18843 11.0864 -3.4629
LeftFoot  2.92369 0.641558 -5.26748
LeftToes  1.06245e-005 4.65869e-005 -8.65517e-006
227
root  14.493 40.6003 9.62932 153.46 84.6625 155.636
RightUpLeg  2.15672 -12.7124 -13.9203
RightLeg  7.18001 -11.8178 2.0584
RightFoot  -1.09568 -0.436313 4.74603
RightToes  0.000481921 0.542163 -0.142578
Spine  -1.69451 -0.201091 -2.2507
Spine1  14.1859 -0.815753 2.36275
HEad  11.6491 -2.97185 1.04381
LeftShoulder1  8.99352 -13.0717 -47.3525
LeftArm  -12.1115 10.3024 -27.3211
LeftForeArm  175.133 -53.6206 -166.767
LeftHand  -0.25398 0.0180481 5.50724
RightShoulder  4.3132 7.38926 33.6491
RightArm  -7.38591 -10.647 36.5349
RightForeArm  141.035 54.2315 163.871
RightHand  -2.12867 4.88498 -24.0708
LeftUpLeg  1.53617 6.85195 7.06312
LeftLeg  1.20907 11.0212 -3.49119
LeftFoot  2.85662 0.633789 -5.22705
LeftToes  1.06245e-005 4.65869e-005 -8.65517e-006
228
root  14.5296 40.5997 9.61809 153.259 84.6843 155.462
RightUpLeg  2.27328 -12.7158 -13.968
RightLeg  7.11859 -11.7769 2.08319
RightFoot  -1.10748 -0.438321 4.77373
RightToes  0.000481921 0.542163 -0.142578
Spine  -1.69587 -0.379991 -2.65953
Spine1  14.2859 -1.15523 2.86535
HEad  11.7057 -2.51086 0.968541
LeftShoulder1  8.94991 -12.9067 -47.5999
LeftArm  -12.3767 10.3798 -27.0804
LeftForeArm  175.232 -53.5017 -166.829
LeftHand  -0.25398 0.0180481 5.50724
RightShoulder  4.27816 7.31111 33.6111
RightArm  -5.88003 -13.5956 37.3215
RightForeArm  144.403 51.9933 165.256
RightHand  -2.03719 4.70897 -23.4623
LeftUpLeg  1.61342 6.86006 7.05897
LeftLeg  1.2528 11.0348 -3.49145
LeftFoot  2.7831 0.627986 -5.20429
LeftToes  1.06245e-005 4.65869e-005 -8.65517e-006
229
root  14.5606 40.599 9.60467 153.121 84.7915 155.304
RightUpLeg  2.31685 -12.7044 -13.9618
RightLeg  7.03757 -11.6802 2.12318
RightFoot  -1.11261 -0.441344 4.81752
RightToes  0.000481921 0.542163 -0.142578
Spine  -1.85362 -0.538011 -3.02157
Spine1  14.4745 -1.46728 3.33735
HEad  11.81 -2.21705 0.892254
LeftShoulder1  8.94931 -12.8141 -47.8702
LeftArm  -12.6605 10.4225 -26.8723
LeftForeArm  175.082 -53.4111 -166.86
LeftHand  -0.25398 0.0180481 5.50724
RightShoulder  4.21645 7.1998 33.4466
RightArm  -4.12401 -15.9165 37.8424
RightForeArm  146.055 50.2172 166.192
RightHand  -2.02021 4.80833 -23.059
LeftUpLeg  1.61747 6.89198 7.08968
LeftLeg  1.35038 11.0999 -3.48099
LeftFoot  2.68849 0.623554 -5.20053
LeftToes  1.06245e-005 4.65869e-005 -8.65517e-006
230
root  14.586 40.5984 9.59185 152.914 84.9112 155.063
RightUpLeg  2.31667 -12.678 -13.9352
RightLeg  6.97981 -11.5874 2.13582
RightFoot  -1.11245 -0.443616 4.84995
RightToes  0.000481921 0.542163 -0.142578
Spine  -1.90085 -0.673458 -3.2606
Spine1  14.4215 -1.68563 3.59196
HEad  11.9968 -1.95192 0.920654
LeftShoulder1  8.96313 -12.7965 -47.9974
LeftArm  -12.7955 10.5839 -26.774
LeftForeArm  174.931 -53.3239 -166.888
LeftHand  -0.25398 0.0180481 5.50724
RightShoulder  4.15124 7.09337 33.2281
RightArm  -2.30912 -18.0347 38.1969
RightForeArm  146.917 48.7107 166.898
RightHand  -2.00517 4.89488 -22.7106
LeftUpLeg  1.60387 6.92867 7.1216
LeftLeg  1.44286 11.1747 -3.47693
LeftFoot  2.59845 0.619877 -5.19753
LeftToes  1.06245e-005 4.65869e-005 -8.65517e-006
231
root  14.6054 40.5981 9.58189 152.519 84.9971 154.685
RightUpLeg  2.35571 -12.6515 -13.9343
RightLeg  6.94409 -11.5184 2.12656
RightFoot  -1.10119 -0.44409 4.85479
RightToes  0.000481921 0.542163 -0.142578
Spine  -1.65384 -0.769063 -3.37991
Spine1  14.0453 -1.78099 3.5978
HEad  12.1683 -1.83284 1.08787
LeftShoulder1  8.96158 -12.8031 -47.9695
LeftArm  -12.7376 10.7963 -26.7354
LeftForeArm  174.987 -53.2448 -166.929
LeftHand  -0.25398 0.0180481 5.50724
RightShoulder  4.12024 7.026 33.1844
RightArm  -0.864488 -20.216 38.3927
RightForeArm  148.597 47.2468 167.599
RightHand  -1.91177 4.66981 -22.1519
LeftUpLeg  1.664 6.93961 7.12684
LeftLeg  1.46662 11.249 -3.47292
LeftFoot  2.54211 0.616689 -5.18836
LeftToes  1.06245e-005 4.65869e-005 -8.65517e-006
232
root  14.618 40.598 9.57453 152.061 85.0599 154.299
RightUpLeg  2.44279 -12.6367 -13.956
RightLeg  6.92052 -11.4553 2.11989
RightFoot  -1.09073 -0.444199 4.85431
RightToes  0.000481921 0.542163 -0.142578
Spine  -1.31954 -0.850408 -3.43078
Spine1  13.7055 -1.82542 3.47262
HEad  12.1607 -1.92277 1.26306
LeftShoulder1  8.93904 -12.7895 -47.8878
LeftArm  -12.6781 10.8625 -26.7032
LeftForeArm  175.107 -53.1485 -166.982
LeftHand  -0.25398 0.0180481 5.50724
RightShoulder  4.13637 7.01067 33.3935
RightArm  -0.0582115 -22.2435 38.4982
RightForeArm  151.355 45.9262 168.279
RightHand  -1.76394 4.29555 -21.253
LeftUpLeg  1.78068 6.92754 7.1173
LeftLeg  1.45841 11.3201 -3.45386
LeftFoot  2.50537 0.615092 -5.19106
LeftToes  1.06245e-005 4.65869e-005 -8.65517e-006
233
root  14.6254 40.5981 9.56867 151.573 85.1224 153.883
RightUpLeg  2.50818 -12.6421 -13.9823
RightLeg  6.93079 -11.3652 2.10899
RightFoot  -1.1041 -0.445279 4.86923
RightToes  0.000481921 0.542163 -0.142578
Spine  -1.19061 -0.982731 -3.53097
Spine1  13.6974 -1.94448 3.39579
HEad  11.9991 -2.00589 1.32347
LeftShoulder1  8.90674 -12.7444 -47.8465
LeftArm  -12.8477 10.7831 -26.6686
LeftForeArm  175.032 -52.9653 -167.059
LeftHand  -0.25398 0.0180481 5.50724
RightShoulder  4.17083 7.03302 33.6356
RightArm  0.169914 -23.641 38.7155
RightForeArm  153.912 45.2165 168.699
RightHand  -1.63271 4.04654 -20.2241
LeftUpLeg  1.87297 6.91456 7.10703
LeftLeg  1.48471 11.3887 -3.42596
LeftFoot  2.46092 0.615796 -5.22118
LeftToes  1.06245e-005 4.65869e-005 -8.65517e-006
